<?xml version="1.0" encoding="UTF-8"?>
<svg xmlns="http://www.w3.org/2000/svg" viewBox="0 0 1800 600">
  <defs>
    <style>
      .cls-1 {
        fill: #fff599;
      }

      .cls-2 {
        fill: #fff;
      }

      .cls-3 {
        fill: #00a67a;
      }

      .cls-4 {
        fill: #10b582;
      }

      .cls-5 {
        fill: #1d1d1b;
      }
    </style>
  </defs>
  <g id="Background">
    <rect class="cls-2" x="-57.06" y="-51.71" width="1904.1" height="734.68"/>
  </g>
  <g id="Logo">
    <path id="_1" data-name="1" class="cls-4" d="M1636.89,544.04v18.97c0,3.01-.61,6.96,1.03,9.65,2.14,3.53,7.45,5.46,10.98,7.32,0-4.9-2.15-16.56,1.6-20.22,2.31-2.26,6.46-1.73,9.41-1.74h110.06v-13.98h-133.08Z"/>
    <path id="_9" data-name="9" class="cls-4" d="M1762.98,464.75c-8.7-6.27-17.31-12.69-26.01-18.97-20.86-15.03-44-37.47-72.04-27.66-3.93,1.38-7.59,3.18-11.01,5.57-4.2,2.94-7.85,6.31-10.79,10.54-3.5,5.07-6.2,10.93-7.41,16.97-1.47,7.34-1.42,15.74.62,22.96,9.96,35.23,59.51,45.44,80.52,13.98,3.64-5.46,5.65-11.52,6.66-17.97.97-6.2.12-11.98-1.56-17.95,9.33,5.8,18.17,12.76,27,19.32,4.06,3.03,8.31,7.1,13,9.13,4.22,1.84,8.83-3.29,9.14-7.42.29-3.88-5.5-6.61-8.12-8.5ZM1697.88,486.92c-4.17,3-8.95,4.7-13.97,5.6-32.47,5.79-48.79-39.41-22.01-57.18,3.34-2.21,7.07-3.89,11.01-4.63,31.9-6.01,51.98,36.83,24.97,56.21Z"/>
    <path id="_3" data-name="3" class="cls-4" d="M1678.92,365.36c-6.53-2.49-13.34-4.25-20.01-6.33-2.63-.82-6.39-1.34-8.4-3.38-2.56-2.61-1.6-7.93-1.6-11.25v-28.95h-11.01v31.94c0,6.65.55,13.46-1,19.96,21.52,3.16,41.52,14.8,63.04,17.97-3.41-7.53-7.33-14.52-7.91-22.96-.36-5.27.66-10.16,2.79-14.97,1.91-4.33,4.77-8.34,8.29-11.51,26.79-24.11,69.53,8.96,51.52,40.46-3.41,5.98-8.14,10.01-13.67,13.98,1.77,4.6,4.78,8.27,8,11.98,6.98-3.97,12.72-9.1,16.94-15.97,12.27-19.94,6.9-50.14-11.94-64.13-21.79-16.17-59.21-10.64-71.14,15.21-4.17,9.05-3.9,18.24-3.9,27.95h0Z"/>
    <path id="_2" data-name="2" class="cls-4" d="M1674.91,286.5c0-3.59,1.3-10.39-1.03-13.38-2.18-2.81-8.81-3.12-11.98-4.95-8.51-4.93-13.81-13.78-13.96-23.6-.28-19.22,21.35-30.97,37.97-23.61,10.53,4.66,19.38,14.08,28.02,21.48,17.54,15.04,34.95,32.03,54.03,45.05,2.53-8.55,1-19.07,1-27.95v-55.9h-11.01v55.9c-5.69-2.64-10.24-7.53-15.01-11.56-9.68-8.16-19.41-16.27-29.02-24.51-12.68-10.87-25.14-21.44-43.02-19.66-29.9,2.97-45.91,38.37-30.54,63.72,7.25,11.97,20.85,18.38,34.54,18.97h.01Z"/>
    <path id="C" d="M1595.87,450.21c-7.74,4.42-13.89,12.58-21.01,18.08-15.04,11.62-32.03,18.88-51.03,20.68-10.42.99-20.97-.86-31.02-3.45-13.29-3.43-25.3-10.76-35.02-20.34-44.43-43.81-38.21-126.68,17.01-159.26,7.3-4.31,15.75-6.99,24.01-8.78,9.48-2.05,20.4-2.72,30.02-1.22,18.68,2.9,34.33,10.82,49.03,22.52,6.28,5.01,11.46,11.36,18.01,15.97v-64.89c0-10.96-1.55-23.25,1-33.94-37.02-15.38-73.63-24.9-114.06-19.39-34.08,4.64-66.15,18.12-91.05,42.36-16.62,16.17-30.74,34.62-40.16,55.89-10.72,24.18-14.87,49.61-14.87,75.87,0,58.7,21.79,112.31,70.04,148.11,40.85,30.32,93.1,36.82,142.08,26.98,11.68-2.34,22.99-6.14,34.02-10.58,3.54-1.43,9.72-2.99,11.98-6.29,1.57-2.29,1.03-5.87,1.03-8.49v-89.84h-.01Z"/>
    <path id="L" d="M1099.59,224.6v334.41h203.11v-73.87h-112.06c11.09-3.27,25.47-1,37.02-1h77.04c-3.7-1.55-8.02-1-12.01-1h-103.06V224.6h-90.05.01Z"/>
    <path id="R" d="M1037.24,526.07c-22.86-33.84-47.23-67.09-68.71-101.82,7.93-1.07,15.7-3.63,23.01-6.85,12.88-5.68,24.73-13.99,33.5-25.09,25.16-31.87,25.33-84.05,6.21-118.79-14.99-27.22-43.93-44.77-74.73-47.75-12.72-1.23-22.78,8.65-33.02,15-24.54,15.21-48.92,30.86-73.04,46.72-6.62,4.35-16.12,12.97-24.01,14.28-2.95.49-6.19-.94-9.01-1.68-3.92-1.02-8.6-1.73-11.91-4.18-5.09-3.76-8.81-11.09-12.1-16.41h-.01c-3.01,7.16-1,18.23-1,25.96v255.55h86.05v-131.77c7.72,10.6,13.85,22.62,20.44,33.94,11.84,20.35,23.73,40.68,35.8,60.89,4.94,8.28,9.85,16.6,14.66,24.96,1.96,3.41,4.09,8.8,7.53,10.95,2.43,1.51,5.9,1.03,8.63,1.03h95.05c-6.8-12.18-15.54-23.39-23.34-34.94ZM938.49,373.23c-17.44,11.6-40.15,9.09-60.03,9.09v-88.84h0c19.7-.01,42.8-2.5,60.03,9.08,20.83,14.01,20.75,56.87,0,70.67Z"/>
    <polygon id="figure_3_yellow" data-name="figure 3 yellow" class="cls-1" points="464.13 153.91 573.57 89.83 536.1 65.94 451.84 82.96 436.77 137 425.63 104.38 387.34 134.7 383.74 88.86 424.18 50.71 553.34 20.96 697.53 84.63 733.98 77.48 769.23 25.86 855.79 25.2 810.12 125.93 766.54 130.12 795.8 207.19 855.36 189.21 879.25 129.17 891.32 158.66 944.71 124.22 940.13 174.08 792.4 268.49 784.13 253.05 717.33 165.32 535.84 221.49 528.48 242.74 609.96 345.35 599.45 382.18 456.33 449 445.47 469.73 490.05 529.21 474.14 543.76 432.78 519.38 376.51 463.4 387.68 441.5 436.37 422.36 490.35 363.29 546.22 342.11 472.21 291.21 321.22 333.62 299.02 362.82 144.47 392.81 73.27 458.83 60.89 490.8 38.02 488.56 35.97 453.75 60.14 370.27 113.48 368.08 191.86 316.54 265.68 304.47 360.76 222.19 354.24 211.5 445.99 153.26 464.13 153.91 464.13 153.91 464.13 153.91"/>
    <polygon id="figure_2_black" data-name="figure 2 black" class="cls-5" points="481.54 171.29 590.98 107.2 553.51 83.32 469.26 100.33 443.05 121.75 404.76 152.07 401.16 106.24 441.59 68.09 570.76 38.34 714.94 102.01 751.39 94.85 786.65 43.24 873.21 42.58 827.54 143.3 783.95 147.5 813.22 224.56 872.77 206.58 896.66 146.54 908.73 176.04 962.13 141.59 957.54 191.45 809.81 285.86 796.04 272.58 734.6 182.56 553.26 238.86 545.89 260.11 627.37 362.72 616.86 399.55 473.75 466.37 462.88 487.1 507.47 546.58 491.55 561.13 450.2 536.75 393.93 480.77 405.09 458.87 453.79 439.73 507.77 380.67 563.63 359.49 489.63 308.59 338.64 350.99 316.44 380.2 161.89 410.18 90.69 476.21 78.3 508.17 55.44 505.93 53.38 471.13 77.55 387.65 130.9 385.46 209.27 333.91 283.1 321.84 378.17 239.56 371.65 228.88 463.41 170.63 481.54 171.29 481.54 171.29 481.54 171.29"/>
    <polygon id="figure_3_green" data-name="figure 3 green" class="cls-3" points="498.96 188.66 608.4 124.57 570.93 100.69 486.67 117.71 471.6 171.76 460.46 139.12 422.17 169.44 418.57 123.61 459.01 85.46 588.18 55.71 732.36 119.38 768.8 112.23 804.06 60.62 890.62 59.95 844.95 160.68 801.36 164.87 830.63 241.94 890.18 223.96 914.08 163.92 926.15 193.41 979.55 158.97 974.96 208.83 827.23 303.24 804.86 297.11 740.5 202.53 570.67 256.24 563.31 277.49 644.78 380.1 634.28 416.92 491.16 483.75 480.3 504.48 524.88 563.96 508.96 578.51 467.61 554.13 411.34 498.15 422.51 476.25 471.21 457.11 525.19 398.04 581.05 376.86 507.04 325.96 356.06 368.37 333.86 397.57 179.3 427.55 108.1 493.58 95.72 525.55 72.85 523.3 70.8 488.5 94.97 405.02 148.31 402.83 226.69 351.28 300.51 339.22 395.59 256.93 389.06 246.25 480.82 188.01 498.96 188.66 498.96 188.66 498.96 188.66"/>
  </g>
</svg>