<svg xmlns="http://www.w3.org/2000/svg" viewBox="0 0 1600 900" role="img" aria-labelledby="title desc">
  <title id="title">RLC 1952 news placeholder</title>
  <desc id="desc">Graphic fallback for archive articles without a local photo.</desc>
  <defs>
    <linearGradient id="sky" x1="0" y1="0" x2="1" y2="1">
      <stop offset="0" stop-color="#eef7ff"/>
      <stop offset="0.48" stop-color="#dcebf7"/>
      <stop offset="1" stop-color="#f6fff4"/>
    </linearGradient>
    <linearGradient id="track" x1="0" y1="0" x2="1" y2="0">
      <stop offset="0" stop-color="#0b2f6b"/>
      <stop offset="1" stop-color="#1f7a43"/>
    </linearGradient>
  </defs>
  <rect width="1600" height="900" fill="url(#sky)"/>
  <path d="M0 690 C280 590 520 610 820 700 C1090 782 1300 770 1600 650 L1600 900 L0 900 Z" fill="url(#track)" opacity="0.95"/>
  <path d="M0 790 C340 676 566 700 870 792 C1120 868 1340 850 1600 744" fill="none" stroke="#ffffff" stroke-width="12" opacity="0.55"/>
  <path d="M0 842 C336 724 590 744 910 842 C1170 920 1380 898 1600 808" fill="none" stroke="#fff599" stroke-width="10" opacity="0.75"/>
  <g transform="translate(120 118)">
    <text x="0" y="0" fill="#061938" font-family="Arial, Helvetica, sans-serif" font-size="42" font-weight="700" letter-spacing="8">RLC 1952</text>
    <text x="0" y="95" fill="#061938" font-family="Arial, Helvetica, sans-serif" font-size="88" font-weight="900">Vereinsmeldung</text>
    <rect x="0" y="132" width="360" height="10" fill="#fff599"/>
  </g>
</svg>
