<svg xmlns="http://www.w3.org/2000/svg" viewBox="0 0 960 720" role="img" aria-labelledby="title desc">
  <title id="title">Bildplatzhalter</title>
  <desc id="desc">Grafischer Platzhalter fuer kuenftige Vereinsfotos</desc>
  <defs>
    <linearGradient id="sky" x1="0" x2="1" y1="0" y2="1">
      <stop offset="0" stop-color="#f7fbf6"/>
      <stop offset="0.55" stop-color="#e7f2eb"/>
      <stop offset="1" stop-color="#d9e8df"/>
    </linearGradient>
    <linearGradient id="track" x1="0" x2="1" y1="0" y2="0">
      <stop offset="0" stop-color="#b91f2c"/>
      <stop offset="1" stop-color="#d64b33"/>
    </linearGradient>
    <filter id="shadow" x="-20%" y="-20%" width="140%" height="140%">
      <feDropShadow dx="0" dy="18" stdDeviation="18" flood-color="#15342b" flood-opacity="0.18"/>
    </filter>
  </defs>
  <rect width="960" height="720" fill="url(#sky)"/>
  <path d="M0 430c150-40 275-51 412-32 165 23 289 18 548-74v396H0z" fill="#edf6ed"/>
  <path d="M-80 692c180-192 348-284 540-285 162-1 323 64 580 183v130H-80z" fill="url(#track)" filter="url(#shadow)"/>
  <path d="M8 675c170-166 318-239 488-234 140 4 283 55 446 141" fill="none" stroke="#fff7e5" stroke-width="10" opacity="0.9"/>
  <path d="M54 717c166-159 304-225 457-214 121 9 250 55 391 135" fill="none" stroke="#fff7e5" stroke-width="7" opacity="0.72"/>
  <g fill="none" stroke="#255f4a" stroke-width="7" opacity="0.2">
    <path d="M152 194h656"/>
    <path d="M152 244h656"/>
    <path d="M152 294h656"/>
  </g>
  <g transform="translate(164 156)">
    <rect width="632" height="204" rx="24" fill="#ffffff" opacity="0.82"/>
    <rect x="18" y="18" width="596" height="168" rx="18" fill="none" stroke="#255f4a" stroke-width="3" stroke-dasharray="14 14" opacity="0.65"/>
    <text x="316" y="91" text-anchor="middle" font-family="Inter, Arial, sans-serif" font-size="34" font-weight="800" fill="#173f35">Bild folgt</text>
    <text x="316" y="130" text-anchor="middle" font-family="Inter, Arial, sans-serif" font-size="20" font-weight="600" fill="#60736b">Platz fuer Vereinsfoto</text>
  </g>
</svg>
